<svg id="Flat" height="512" viewBox="0 0 512 512" width="512" xmlns="http://www.w3.org/2000/svg"><path d="m72 184h368a16 16 0 0 1 16 16v256a0 0 0 0 1 0 0h-400a0 0 0 0 1 0 0v-256a16 16 0 0 1 16-16z" fill="#7e8589"/><path d="m88 216h336v240h-336z" fill="#e9eef2"/><g fill="#c3c6c7"><path d="m24 440h464a0 0 0 0 1 0 0v16a32 32 0 0 1 -32 32h-400a32 32 0 0 1 -32-32v-16a0 0 0 0 1 0 0z"/><path d="m136 272h16a8 8 0 0 0 0-16h-16a8 8 0 0 0 0 16z"/><path d="m184 272h128a8 8 0 0 0 0-16h-128a8 8 0 0 0 0 16z"/><path d="m344 272h32a8 8 0 0 0 0-16h-32a8 8 0 0 0 0 16z"/><path d="m136 400h88a8 8 0 0 0 0-16h-88a8 8 0 0 0 0 16z"/><path d="m336 384h-80a8 8 0 0 0 0 16h80a8 8 0 0 0 0-16z"/><path d="m376 288h-104a8 8 0 0 0 0 16h104a8 8 0 0 0 0-16z"/><path d="m208 288a8 8 0 0 0 0 16h32a8 8 0 0 0 0-16z"/><path d="m136 304h40a8 8 0 0 0 0-16h-40a8 8 0 0 0 0 16z"/><path d="m376 352h-168a8 8 0 0 0 0 16h168a8 8 0 0 0 0-16z"/><path d="m136 368h40a8 8 0 0 0 0-16h-40a8 8 0 0 0 0 16z"/><path d="m136 336h144a8 8 0 0 0 0-16h-144a8 8 0 0 0 0 16z"/><path d="m344 336a8 8 0 0 0 0-16h-32a8 8 0 0 0 0 16z"/><circle cx="376" cy="328" r="8"/></g><path d="m56 320a8 8 0 0 1 -8-8v-216a8 8 0 0 1 16 0v216a8 8 0 0 1 -8 8z" fill="#4f5659"/><circle cx="56" cy="240" fill="#2d85cc" r="24"/><path d="m112 152-88-74.667 232-53.333 232 53.333-88 74.667z" fill="#414649"/><path d="m400 184h-288v-72s72-24 144-24 144 24 144 24z" fill="#2d85cc"/><path d="m112 184v-32s72-24 144-24 144 24 144 24v32z" fill="#4f5659"/></svg>