<svg id="Filled" height="512" viewBox="0 0 512 512" width="512" xmlns="http://www.w3.org/2000/svg"><path d="m72 184h368a16 16 0 0 1 16 16v256a0 0 0 0 1 0 0h-400a0 0 0 0 1 0 0v-256a16 16 0 0 1 16-16z" fill="#7e8589"/><path d="m88 216h336v240h-336z" fill="#e9eef2"/><path d="m24 440h464a0 0 0 0 1 0 0v16a32 32 0 0 1 -32 32h-400a32 32 0 0 1 -32-32v-16a0 0 0 0 1 0 0z" fill="#c3c6c7"/><circle cx="56" cy="240" fill="#2d85cc" r="24"/><path d="m112 152-88-74.667 232-53.333 232 53.333-88 74.667z" fill="#414649"/><path d="m400 184h-288v-72s72-24 144-24 144 24 144 24z" fill="#2d85cc"/><path d="m112 184v-32s72-24 144-24 144 24 144 24v32z" fill="#4f5659"/><path d="m488 432h-24v-232a24.027 24.027 0 0 0 -24-24h-32v-20.3l85.176-72.27a8 8 0 0 0 -3.384-13.9l-232-53.333a7.973 7.973 0 0 0 -3.584 0l-232 53.333a8 8 0 0 0 -3.384 13.9l29.176 24.759v100.824a32 32 0 0 0 0 61.974v161.013h-24a8 8 0 0 0 -8 8v16a40.045 40.045 0 0 0 40 40h400a40.045 40.045 0 0 0 40-40v-16a8 8 0 0 0 -8-8zm-40-232v232h-16v-216a8 8 0 0 0 -8-8h-336a8 8 0 0 0 -8 8v2.868a32.037 32.037 0 0 0 -16-9.855v-9.013a8.009 8.009 0 0 1 8-8h368a8.009 8.009 0 0 1 8 8zm-32 232h-320v-208h320zm-24-290.833c-22.79-6.662-78.96-21.167-136-21.167s-113.21 14.5-136 21.167v-23.286c17.965-5.423 77.326-21.881 136-21.881 58.6 0 118.021 16.461 136 21.883zm-272 34.833v-18.119c17.954-5.42 77.317-21.881 136-21.881 58.611 0 118.032 16.464 136 21.883v18.117zm136-143.792 214.658 49.348-62.658 53.164v-22.72a8 8 0 0 0 -5.47-7.589c-2.99-.997-74.065-24.411-146.53-24.411s-143.54 23.414-146.53 24.411a8 8 0 0 0 -5.47 7.589v22.72l-62.658-53.164zm-152 123.492v20.3h-32a23.885 23.885 0 0 0 -8 1.376v-55.612zm-64 84.3a16 16 0 1 1 16 16 16.019 16.019 0 0 1 -16-16zm24 30.987a32.037 32.037 0 0 0 16-9.855v170.868h-16zm416 185.013a24.028 24.028 0 0 1 -24 24h-400a24.028 24.028 0 0 1 -24-24v-8h448z"/><path d="m136 272h16a8 8 0 0 0 0-16h-16a8 8 0 0 0 0 16z"/><path d="m184 272h128a8 8 0 0 0 0-16h-128a8 8 0 0 0 0 16z"/><path d="m344 272h32a8 8 0 0 0 0-16h-32a8 8 0 0 0 0 16z"/><path d="m136 400h88a8 8 0 0 0 0-16h-88a8 8 0 0 0 0 16z"/><path d="m336 384h-80a8 8 0 0 0 0 16h80a8 8 0 0 0 0-16z"/><path d="m376 288h-104a8 8 0 0 0 0 16h104a8 8 0 0 0 0-16z"/><path d="m208 288a8 8 0 0 0 0 16h32a8 8 0 0 0 0-16z"/><path d="m136 304h40a8 8 0 0 0 0-16h-40a8 8 0 0 0 0 16z"/><path d="m376 352h-168a8 8 0 0 0 0 16h168a8 8 0 0 0 0-16z"/><path d="m136 368h40a8 8 0 0 0 0-16h-40a8 8 0 0 0 0 16z"/><path d="m136 336h144a8 8 0 0 0 0-16h-144a8 8 0 0 0 0 16z"/><path d="m344 336a8 8 0 0 0 0-16h-32a8 8 0 0 0 0 16z"/><circle cx="376" cy="328" r="8"/></svg>